<?xml version="1.0" standalone="no"?>
<!DOCTYPE svg PUBLIC "-//W3C//DTD SVG 20010904//EN"
 "http://www.w3.org/TR/2001/REC-SVG-20010904/DTD/svg10.dtd">
<svg version="1.0" xmlns="http://www.w3.org/2000/svg"
 width="512.000000pt" height="512.000000pt" viewBox="0 0 512.000000 512.000000"
 preserveAspectRatio="xMidYMid meet">
<metadata>
Created by potrace 1.14, written by Peter Selinger 2001-2017
</metadata>
<g transform="translate(0.000000,512.000000) scale(0.100000,-0.100000)"
fill="#000000" stroke="none">
<path d="M655 4258 c-78 -17 -117 -42 -179 -119 -48 -59 -47 -31 -48 -1365 0
-688 3 -1266 7 -1285 19 -85 77 -155 163 -195 28 -13 52 -25 52 -26 0 -2 -33
-3 -73 -3 -61 -1 -81 -5 -120 -28 -26 -15 -54 -39 -64 -53 -10 -14 -25 -34
-33 -43 -19 -22 -60 -107 -60 -126 0 -8 -5 -15 -12 -15 -6 0 -9 -3 -5 -6 3 -3
-5 -30 -18 -59 -13 -30 -21 -56 -17 -59 3 -3 0 -6 -7 -6 -7 0 -9 -4 -6 -10 3
-5 3 -10 -2 -10 -8 0 -28 -49 -40 -98 -3 -12 -9 -22 -14 -22 -5 0 -9 -7 -9
-16 0 -8 -10 -36 -21 -62 -12 -25 -22 -51 -23 -57 -1 -5 -7 -19 -13 -30 -14
-27 -38 -98 -35 -108 1 -4 -1 -7 -6 -7 -7 0 -12 -11 -52 -113 -21 -54 -22 -63
-10 -115 19 -87 70 -152 150 -194 l45 -23 2335 -3 c2358 -2 2420 -2 2420 31 0
4 4 6 9 2 14 -8 96 75 120 122 39 74 38 118 -7 224 -45 107 -54 130 -58 144
-8 28 -57 141 -65 150 -5 5 -9 14 -9 21 0 6 -8 29 -17 50 -9 22 -17 41 -18 44
0 3 -6 14 -12 25 -6 11 -12 23 -12 27 -1 4 -8 23 -16 42 -8 20 -15 38 -15 42
0 13 -102 218 -115 231 -8 7 -22 24 -33 37 -35 45 -99 70 -178 71 -40 0 -70 3
-67 7 2 5 9 8 14 8 23 0 97 41 127 71 28 28 65 82 61 91 0 2 5 17 11 33 13 34
18 2518 5 2577 -4 18 -19 50 -32 71 -46 73 -91 107 -178 135 -39 12 -3763 13
-3820 0z"/>
</g>
</svg>
